<mxfile host="app.diagrams.net" modified="2023-11-16T19:45:21.419Z" agent="Mozilla/5.0 (Windows NT 10.0; Win64; x64) AppleWebKit/537.36 (KHTML, like Gecko) Chrome/119.0.0.0 Safari/537.36" version="22.1.2" etag="D4p6u9gn0t4l6Zb_HcY5" type="github">
  <diagram name="Page-1" id="WNJrCO1GwOrWOz3Foawp">
    <mxGraphModel>
      <root>
        <mxCell id="0" />
        <mxCell id="1" parent="0" />
      </root>
    </mxGraphModel>
  </diagram>
</mxfile>
